<svg xmlns="http://www.w3.org/2000/svg" fill="none" viewBox="0 0 158 36" id="svg_logo_bonga_default" width="100%" height="100%"><g><path fill="#fff" fill-rule="evenodd" d="M140 11.92c0 6.683-6.566 11.53-11.557 10.816-1.088 3.113-5.574 8.463-9.15 7.032 3.107-3.595 3.811-7.892 3.49-9.38-.527-2.44-6.327 1.317-6.347 1.326-.884-2.434 4.946-5.249 7.442-4.242 1.847.745 1.613 4.916-.266 8.338 3.198-1.967 4.558-7.003 4.558-7.003 1.938.394 7.771-2.09 7.771-8.071 0-4.403-3.642-7.98-8.756-7.98-5.06 0-8.816 3.738-11.013 7.996-.16.312-1.462-.328-1.462-1.252 0-2.927 5.385-8.382 12.346-8.632C132.534.671 140 2.992 140 11.92Zm-29.341.209c.184 3.042 5.356 10.41 2.205 12.729-2.402 1.768-6.152-1.154-7.297-3.397 0 0 .059 3.553-1.178 3.553-1.756 0-2.578-1.251-2.255-2.078 1.103-2.824 1.883-9.96.235-9.96-1.796-.019-2.642 8.868-2.252 11.495.055.394-.087.861-.85.861-1.77 0-3.096-.86-2.707-2.16.47-1.575 2.057-11.454.492-11.454-2.348 0-2.945 9.466-2.598 12.717-.003.169-.183.845-.86.862-2.263.057-3.24-1.377-3.004-2.125 1.025-3.233 1.214-8.218.84-8.222-.356 1.776-2.202 9.816-5.297 9.784-1.805-.018-2.725-2.039-3.07-3.457-.22.674-1.466 3.537-3.225 3.519-2.144-.022-2.596-2.658-2.596-2.658-.447.687-2.24 3.882-4.902 3.855-5.126-.052-6.07-7.507-6.04-10.618.098-9.595 4.853-15.23 8.88-15.19 2.194.023 3.545 1.864 3.186 4.752-.254 2.05-2.894 5.46-4.822 5.112-.374-.067-.347-.241-.162-.577 1.771-2.384 2.792-6.651 1.542-6.664-1.058-.01-5.04 4.226-5.13 13.152-.018 1.853.381 7.485 2.467 7.506 2.923.03 4.744-5.774 4.744-5.774 2.228-8.48 6.633-9.889 9.208-8.302.514.316.453 1.076.453 1.076.477.258.815.64.861 1.204-1.628 2.622-2.265 8.582-1.208 8.781 1.421.268 3.677-6.17 3.725-10.997.008-.729 1.18-1.186 1.728-1.18 1.859.019 2.297 2.08 2.275 4.335.225-1.978 1.58-4.323 3.613-4.302 1.84.018 2.576 2.72 2.473 5.118 0 0 .786-4.179 3.261-4.154 1.907.02 2.406 4.318 1.901 8.357-.007.055.036.216.176.021.973-1.346 2.325-5.455 2.335-6.351.085-2.31 1.093-3.412 2.136-3.402 1.032.01 1.424 1.007 1.212 1.374-.296.477-.549 1.95-.495 2.859Zm-26.439.008c-2.26-.888-4.869 5.569-4.58 7.858.1.785.957.99 2.405-1.742 1.038-1.957 1.874-4.53 2.175-6.116Zm24.712 2.145c-.116.228-1.775 4.326-1.995 4.917-.213.57 2.111 3.265 3.405 2.26 1.525-1.183-1.392-7.212-1.41-7.177ZM63.35 9.993c-2.021 5.222-2.08 13.07-.884 14.485.418.504.3 1.255-.554 1.255-2.813 0-3.298-5.355-3.298-6.414 0 0-1.511 5.378-3.625 5.378-2.464 0-2.535-6.058-2.438-7.278-.303.089-.929.462-1.203.708.227 1.144 1.732 8.439.646 11.802C51.382 31.824 50.362 34 47.965 34c-2.377 0-4.465-2.183-4.465-5.385 0-4.863 4.005-9.86 4.995-10.83.118-.115.108-.363.066-.523-.253-1.713-1.058-3.852-1.125-4.008-.088.216-3.413 11.233-5.642 11.233-1.45 0-2.349-1.482-2.447-2.092 0 0-.92 2.615-2.482 2.615-1.842 0-1.84-1.886-1.88-2.346.091-1.533 1.22-9.562-.948-9.562-2.19 0-2.856 4.838-3.484 11.89-.022.238-.497.515-.733.546-1.66.22-2.661-.909-2.774-1.124.975-5.176 1.74-11.875-.19-14.496-.05-.11.443-1.07 1.472-1.07 2.102 0 2.791 3.19 2.71 4.23-.012-.042 0 0 0 0s1.02-3.204 3.275-3.204c4.545 0 3.332 10.622 3.834 10.622.563 0 .57-1.169.632-1.54.372-4.037 2.133-8.994 4.846-9.527.537-.106 1.306.01 1.57.066.265.057.456.07.5-.29.041-.342.452-.568.822-.586 2.515 0 3.968 6.23 4.104 6.743l.12.463c.803-.472 2.002-.833 2.002-.833.135-.513 1.63-6.222 5.516-6.222.732 0 1.667.322 1.667.322.19.058.321.025.347-.187.234-.601 1.965-1.008 3.42-.162.453.335-.168.801-.343 1.25Zm-18.482 1.832c-2.547 0-4.582 8.843-3.407 8.843 1.388 0 3.513-7.996 3.618-8.482.056-.257-.071-.361-.211-.361Zm4.514 8.958c-.27.377-2.796 4.425-2.64 8.496.02.53.274 1.669 1.06 1.669.787 0 1.583-.977 1.89-2.93.468-2.982-.193-6.727-.31-7.235Zm10.027-9.117c-3.835-.296-5.478 7.809-4.231 8.132 1.805.464 3.761-5.28 4.23-8.132Zm-34.182-.996c.282.362 2.136 2.497 1.699 6.89-.355 3.572-1.999 8.222-4.906 8.222-2.727 0-4.107-3.702-3.858-7.773-.27-.07-.46.116-.573.324-2.248 4.16-7.257 9.149-9.982 9.149-1.462 0-1.988-2.66-1.988-2.884 0-1.652 8.244-7.553 10.001-8.39 0 0 1.44-2.173 1.44-3.974 0-1.563-.778-1.973-1.254-1.973-2.31 0-5.758 3.302-7.49 6.802-.194.392-.534.53-.972.53-1.522 0-2.46-2.112-2.221-2.39.476-.552 1.052-1.033 1.422-1.662C9.755 8.075 9.99 2.338 8.835 2.338c-1.81 0-5.23 5.924-5.23 15.462 0 4.44.985 6.975 1.653 7.615.22.21.007.924-.79 1.187-1.539.51-4.067-1.186-4.4-5.74C-.691 10.405 5.002-.835 10.07.049c1.103.192 2.855 2.42 1.124 8.94 0 0 .974-.906 2.517-1.294 3.41-.86 5.993 1.147 5.887 4.157 0 0 1.104-3.29 3.004-3.29 1.818 0 2.626 2.108 2.626 2.108Zm-1.498 1.77c-.758 0-1.283 1.347-1.306 1.438 1.409 0 1.548 1.932 1.33 1.931-1.174-.003-2.027.398-2.184.598-.946 1.012-1.034 5.741-.261 5.957 1.311.365 2.588-3.091 2.998-5.123.543-2.694-.053-4.802-.578-4.802Zm98.078-5.296c-.738.884-.381 3.244.135 3.657.302-.133 7.202-1.196 8.44-1.83.574-.293.882-.699 1.047-1.358-.852-.096-9.47-.51-9.622-.469Zm1.537 4.577c-.62.742-.32 2.726.113 3.073.254-.112 6.052-1.005 7.092-1.538.482-.246.742-.587.88-1.142-.716-.08-7.957-.429-8.085-.393Z" clip-rule="evenodd"></path></g></svg>