<svg width="192" height="84" viewBox="0 0 192 84" fill="none" xmlns="http://www.w3.org/2000/svg">
<path opacity="0.24" d="M126.011 35.2179C125.995 35.0329 125.995 34.848 126.011 34.6631C125.894 35.4868 125.826 36.5964 125.759 37.4369L125.742 38.5465C125.742 38.7146 125.742 38.8995 125.759 39.0844C125.759 39.034 125.759 38.9835 125.759 38.9331C125.742 37.6555 125.826 36.4283 126.011 35.2179Z" fill="black"/>
<path fill-rule="evenodd" clip-rule="evenodd" d="M148.899 17.9011C149.123 18.029 149.378 18.157 149.666 18.2689C149.73 18.2849 149.954 18.3009 150.64 17.9171C150.656 17.9171 151.455 17.4534 151.551 17.2615L151.519 17.2295C151.311 17.1495 151.136 17.0696 150.976 16.9736C150.841 16.8983 150.733 16.8088 150.641 16.7319L150.624 16.7178C150.864 16.382 153.372 15.9182 153.947 15.9182C153.979 15.9502 154.027 15.9822 154.075 16.0141L154.091 16.0301L154.111 16.03C154.177 16.0288 154.244 16.0148 155.002 15.8543C155.409 15.7678 155.635 15.729 155.798 15.7011C155.846 15.6929 155.888 15.6856 155.928 15.6783C156.08 15.7023 156.188 15.7183 156.296 15.7343L156.296 15.7343L156.296 15.7343C156.404 15.7503 156.511 15.7663 156.663 15.7903C156.775 15.8063 156.887 15.8223 156.999 15.8542C157.334 15.9182 157.558 15.9662 157.686 16.0142C157.638 16.0461 157.574 16.0781 157.51 16.1101C157.526 16.1261 159.922 17.2934 160.401 17.2615C160.513 17.2295 160.609 17.1815 160.689 17.1335C160.833 17.1335 161.248 17.2615 161.648 17.4374C161.679 17.4477 161.709 17.4647 161.745 17.484C161.764 17.4947 161.785 17.506 161.807 17.5173C162.398 17.7892 162.83 17.9651 163.037 17.9331C163.581 17.6133 163.852 17.2455 163.804 16.8777L163.756 16.6858C163.597 16.5419 162.894 16.35 162.814 16.334C162.223 16.1741 161.52 16.0781 161.456 16.1261L161.488 16.1741C161.456 16.1741 161.344 16.1741 161.2 16.1581C160.162 15.9342 159.091 15.7743 158.005 15.6783C157.997 15.6704 157.989 15.6584 157.981 15.6464L157.981 15.6464C157.973 15.6344 157.965 15.6224 157.957 15.6144C157.861 15.5984 157.526 15.5824 157.031 15.6144C156.647 15.5824 156.28 15.5664 155.896 15.5664C155.593 15.5664 155.289 15.5664 154.97 15.5824C152.573 15.6783 150.257 16.1101 148.084 16.8297C148.052 17.1975 148.292 17.5653 148.899 17.9011ZM180.467 38.7055C180.446 38.2207 180.385 37.6361 180.328 37.0804L180.328 37.0802L180.328 37.08L180.328 37.0798L180.328 37.0797C180.306 36.8718 180.285 36.6681 180.267 36.4751C180.267 36.387 180.259 36.299 180.243 36.2109C180.25 36.2961 180.258 36.3844 180.267 36.4751C180.267 36.5629 180.259 36.6508 180.243 36.7386C180.147 37.5222 179.572 38.2898 178.566 39.0254C178.278 39.3132 178.15 39.8249 178.182 40.5925V40.5605C178.214 41.0722 178.118 41.5679 177.911 41.8878C177.256 42.2555 176.473 42.6233 175.594 42.9592L175.578 42.9676C175.311 43.1089 175.029 43.2583 174.731 43.8227C174.076 45.006 174.204 46.9089 175.498 46.6211C175.961 46.4452 176.393 46.2693 176.776 46.0774C177.064 46.0294 177.224 46.3013 177.208 46.765C177.2 46.797 177.196 46.8249 177.192 46.8529C177.188 46.8809 177.184 46.9089 177.176 46.9409C177.112 47.6445 177.24 47.9164 177.591 47.7725C179.412 46.6851 179.7 45.8695 179.923 45.2299L180.083 44.3984L180.323 42.6873C180.387 41.9517 180.435 40.9763 180.467 40.1767C180.467 40.0808 180.467 39.9848 180.483 39.8889L180.467 38.7055ZM155.593 16.3339L155.609 16.3499H155.769C155.896 16.4458 156.056 17.6772 155.465 17.8531L155.126 17.8371L155.126 17.8371C154.899 17.8264 154.672 17.8157 154.459 17.8051C154.411 17.8051 154.363 17.8211 154.315 17.8371C153.963 18.013 153.308 18.9405 153.82 19.0844C155.625 19.2283 157.606 19.1963 159.411 18.9564C159.563 18.9426 159.703 18.9168 159.852 18.8894L159.852 18.8894L159.922 18.8765C160.194 18.7645 159.89 18.4127 159.794 18.3168C159.603 18.1089 159.075 17.6772 158.756 17.6612L158.468 17.7091C157.781 17.5652 156.919 16.3979 156.919 16.3179C157.063 16.3019 157.19 16.2699 157.318 16.238V16.222C157.206 16.142 156.935 16.03 156.727 15.9501C156.455 15.8541 156.184 15.7582 155.992 15.6943C155.721 15.9821 155.561 16.206 155.593 16.3339ZM139.106 24.5215C139.394 24.6494 139.825 24.2976 140.049 24.0737L140.05 24.0725C140.09 24.0326 140.956 23.1727 140.736 22.7944C140.64 22.7145 140.56 22.6345 140.48 22.5386L140.496 22.5226C140.464 21.771 142.397 20.3158 143.084 20.3958L143.1 20.3798C143.26 20.5557 143.467 20.7316 143.707 20.8915C143.979 20.9874 144.474 20.6836 144.745 20.5077C144.761 20.5077 145.784 19.7881 145.608 19.5163C144.985 19.1005 144.713 18.6527 144.745 18.221C142.333 19.4523 140.144 21.0834 138.275 23.0023C138.275 23.53 138.547 24.0257 139.106 24.5215ZM154.874 16.4939C154.602 16.4459 154.379 16.3979 154.171 16.35C153.947 16.3659 152.573 16.9096 152.494 17.1975L152.51 17.2135C152.909 17.3254 153.356 17.4054 153.851 17.4693C153.915 17.4693 154.091 17.4533 154.459 17.0696C154.469 17.0561 154.492 17.0287 154.523 16.9925L154.523 16.9924C154.639 16.8559 154.861 16.595 154.874 16.4939ZM159.459 27.1279C159.459 26.888 159.283 25.9925 158.357 25.9285C157.254 25.9765 156.136 25.9925 155.082 25.9765C154.906 25.9445 154.666 25.8646 154.443 25.6247C153.804 24.9211 154.171 23.5778 154.97 23.226C155.513 23.242 156.072 23.242 156.631 23.226C157.174 23.1461 157.254 22.6983 157.254 22.5064C157.254 22.3145 157.158 21.563 156.519 21.499C154.347 21.531 152.206 21.3711 150.337 21.0672C149.969 21.0672 149.618 21.2911 149.251 21.7708L149.195 21.8539C148.965 22.1545 148.678 22.3718 148.404 22.4585C147.749 22.3305 147.142 22.1866 146.567 22.0107C146.423 21.9947 146.263 21.9787 145.96 22.0907C144.937 22.4904 143.547 24.1055 144.554 24.6173C145.097 24.7772 145.672 24.9211 146.263 25.049C146.143 25.2575 146.03 25.466 145.914 25.6796C145.861 25.7773 145.807 25.8761 145.752 25.9765C145.48 26.6161 145.56 26.9999 146.039 27.1598C149.73 27.8794 154.235 28.1833 158.66 27.9914C159.363 27.8794 159.459 27.3517 159.459 27.1279ZM174.188 33.1246C174.188 33.1086 173.693 31.2537 172.351 31.5095C171.92 31.6535 171.472 31.7974 170.993 31.9413C170.626 31.9413 170.226 31.6694 169.987 31.2217C169.979 31.1977 169.967 31.1697 169.955 31.1418L169.955 31.1416C169.943 31.1137 169.931 31.0857 169.923 31.0618C169.603 30.3902 169.172 30.1023 168.597 30.1503C167.431 30.4221 166.121 30.662 164.715 30.8539C162.446 31.1737 160.066 31.3496 157.686 31.3976C157.51 31.4136 157.302 31.4456 157.094 31.6055C156.408 32.1012 156.424 33.5884 157.845 33.7003C157.957 33.7003 158.069 33.6963 158.181 33.6923C158.293 33.6883 158.404 33.6843 158.516 33.6843C159.059 33.7643 159.411 34.0201 159.619 34.228C160.497 35.1235 160.242 36.5947 159.075 37.0744C159.02 37.0744 158.96 37.0784 158.9 37.0824L158.9 37.0824C158.84 37.0864 158.78 37.0904 158.724 37.0904C158.436 37.1224 158.149 37.1704 157.845 37.4742C157.27 38.0659 157.35 39.4411 158.82 39.5371C161.344 39.4571 163.868 39.2492 166.296 38.9134C167.399 38.7535 168.453 38.5936 169.444 38.3857C170.099 38.1778 170.37 37.7141 170.29 36.9625V36.9945C170.194 36.4508 170.37 36.019 170.626 35.7632C171.712 35.5073 172.687 35.2195 173.565 34.9156C174.396 34.4679 174.284 33.5244 174.188 33.1246ZM147.222 30.8219C143.356 30.2782 140.049 29.3827 138.004 28.1994C137.045 27.6397 136.438 27.064 136.151 26.4883C136.087 26.4564 135.831 26.3444 135.544 26.3764C135.336 26.3924 135.112 26.4883 134.921 26.7442C134.921 26.7282 133.706 28.6951 133.323 29.8625C132.94 31.0298 132.748 31.7334 132.748 31.7334L132.524 32.533C132.444 32.8368 132.396 33.1246 132.396 33.2526C132.551 33.9366 133.08 34.631 134.018 35.3022C135.019 34.787 136.073 34.3586 137.168 34.0269C136.653 32.9676 137.537 31.2518 138.499 31.1098C140.624 31.9733 143.451 32.6449 146.647 33.0927C147.445 33.1086 147.765 32.549 147.877 32.3091C147.877 32.3081 147.878 32.3029 147.881 32.294C147.923 32.1539 148.243 31.0924 147.222 30.8219ZM161.558 51.4406C161.453 48.5118 160.682 45.7527 159.392 43.3102C161.843 43.214 164.286 43.0152 166.632 42.6872C168.453 42.4314 170.098 42.1275 171.584 41.7757C172.753 41.6354 172.69 42.9245 172.687 43.0034L172.686 43.007C172.655 43.2949 172.495 43.9665 171.712 44.2543C170.306 44.5901 168.741 44.878 167.047 45.1178V45.1338C165.162 45.8215 165.082 47.7244 166.105 48.364C166.408 48.5399 166.744 48.5719 166.983 48.5879V48.6039C167.415 48.5399 167.83 48.476 168.229 48.412C169.539 48.3205 169.31 49.465 169.286 49.5853L169.284 49.5954C169.22 49.8512 168.948 50.4589 168.038 50.6987C167.693 50.7655 167.333 50.8167 166.969 50.8687L166.967 50.869L166.966 50.869L166.966 50.869C166.807 50.8916 166.648 50.9144 166.488 50.9386C164.887 51.1605 163.229 51.3254 161.558 51.4406ZM159.857 60.0074C159.901 59.9098 159.945 59.8118 159.989 59.7134C159.98 59.7792 159.96 59.8366 159.938 59.8777C159.921 59.9127 159.895 59.9577 159.857 60.0074ZM157.88 63.3551C158.122 63.0285 158.353 62.694 158.573 62.3518C160.137 62.2854 161.689 62.143 163.181 61.9405C164.363 61.7806 165.434 61.5887 166.408 61.3648L166.417 61.3637C166.551 61.3469 166.868 61.3069 166.696 61.5727C166.66 61.633 166.605 61.6842 166.553 61.7331L166.553 61.7333L166.53 61.7556C166.521 61.764 166.512 61.7723 166.504 61.7806C166.488 61.7966 166.472 61.8086 166.456 61.8206C166.44 61.8326 166.424 61.8446 166.408 61.8605C166.2 62.0524 166.216 62.1484 166.312 62.1484C166.328 62.1484 166.348 62.1444 166.368 62.1404C166.388 62.1364 166.408 62.1324 166.424 62.1324C166.696 62.0524 167.015 61.9565 167.319 61.8286C167.337 61.8239 167.357 61.8179 167.378 61.8118L167.378 61.8117C167.428 61.7966 167.481 61.7806 167.526 61.7806C167.526 61.7966 167.526 61.8286 167.494 61.8605C164.283 63.5876 160.641 64.611 156.775 64.7389C156.769 64.7377 156.763 64.7363 156.758 64.735C156.87 64.6091 156.981 64.4818 157.09 64.3529C157.165 64.3398 157.251 64.3294 157.35 64.3232H157.51C158.245 64.1952 158.692 63.7955 158.325 63.5076L158.311 63.5003C158.266 63.474 158.13 63.3956 157.88 63.3551ZM153.269 36.4729C151.882 35.5311 150.363 34.7688 148.746 34.2193C148.848 34.0713 148.973 33.9337 149.123 33.8122C149.617 33.4106 150.11 33.4118 150.331 33.4123L150.353 33.4124C150.96 33.4603 151.567 33.5083 152.174 33.5403C153.452 33.6682 153.867 34.7876 153.756 35.5072C153.715 35.7734 153.569 36.1575 153.269 36.4729ZM131.543 36.827C131.558 36.8162 131.573 36.8053 131.588 36.7944C131.579 36.7491 131.571 36.7038 131.566 36.6585C131.558 36.7147 131.55 36.7708 131.543 36.827ZM162.894 22.7464C162.318 23.386 163.309 25.4329 164.731 25.273C165.146 25.193 165.529 25.1131 165.913 25.0331L165.913 25.0331C166.632 24.8092 166.328 23.9937 166.073 23.5779C165.721 23.0342 164.875 22.2826 164.188 22.3786C164.044 22.4074 163.9 22.4394 163.755 22.4717C163.577 22.5112 163.398 22.5513 163.213 22.5865L163.176 22.5968C163.079 22.6233 162.993 22.647 162.894 22.7464ZM174.843 30.47C175.434 30.1342 175.93 29.7984 176.297 29.4306C176.329 29.4146 176.377 29.3986 176.409 29.3986C177 29.3346 178.246 31.5254 177.719 32.5328C177.588 32.6636 177.445 32.7811 177.288 32.9095L177.24 32.9486L177.224 32.97C177.178 33.0299 177.124 33.1012 177.096 33.1725C176.872 33.8121 177.352 35.5392 177.975 35.2513C178.853 34.5797 179.348 33.8601 179.428 33.1245C178.646 30.486 177.431 28.0393 175.866 25.8646C175.818 26.7441 175.067 27.5916 173.677 28.3752L173.663 28.3885L173.652 28.3991C173.606 28.4437 173.547 28.4998 173.533 28.567C173.358 29.0788 174.045 30.7098 174.843 30.47ZM167.542 21.3231C167.702 21.2432 167.846 21.1632 167.99 21.0673C168.789 20.9553 170.849 22.6504 170.434 23.354C170.019 23.6098 169.523 23.8497 168.964 24.0736C168.932 24.0896 168.9 24.1056 168.884 24.1375C168.549 24.4734 169.428 26.1204 170.37 25.9445C172.447 25.113 173.597 24.1056 173.613 23.0821C171.76 21.1472 169.571 19.5321 167.175 18.2848C167.207 18.8445 166.728 19.4042 165.769 19.8839L165.721 19.9319C165.609 20.1558 166.919 21.467 167.542 21.3231ZM169.731 55.2883C169.204 55.4002 168.661 55.5122 168.086 55.6241C167.111 55.848 166.568 56.4396 166.376 56.6795C165.753 57.495 165.977 58.3426 167.127 58.1667C167.481 58.1023 167.828 58.0307 168.162 57.9615L168.163 57.9614L168.163 57.9613L168.164 57.9612L168.164 57.9612L168.164 57.9611L168.164 57.9611C168.328 57.9274 168.488 57.8942 168.645 57.8628C169.796 57.5595 170.388 56.5799 170.473 56.4389L170.482 56.4236C170.801 55.848 170.785 55.0964 169.731 55.2883ZM176.073 51.4664C175.658 51.6902 175.291 52.2979 175.147 52.5857C175.003 52.8896 174.715 53.6891 175.243 53.4812C175.514 53.3373 175.754 53.2094 175.978 53.0655C176.025 53.0495 176.105 53.0335 176.169 53.0335C176.393 53.4173 175.259 55.0963 174.46 55.72C173.933 56.0398 173.294 56.3596 172.559 56.6475C171.76 57.0472 171.265 57.8788 171.265 57.8788C171.137 58.1186 171.057 58.3745 171.425 58.2626C172.527 57.8148 173.374 57.3351 173.965 56.8234L173.965 56.8233L173.965 56.8233L173.965 56.8233L173.965 56.8232L173.965 56.8232C174.109 56.6953 174.252 56.5674 174.364 56.4236L175.115 55.5121L175.93 54.4087C175.954 54.3768 175.978 54.3406 176.002 54.3047C176.026 54.2687 176.049 54.2328 176.073 54.2008C176.378 53.7383 176.706 53.1956 177.008 52.6974L177.008 52.697L177.008 52.6969L177.008 52.6963L177.009 52.6954L177.009 52.6953L177.01 52.6934C177.135 52.4871 177.255 52.2883 177.367 52.106L177.799 51.2905C178.115 50.6421 178.488 49.7662 178.771 49.0785C178.788 49.0382 178.805 48.9973 178.821 48.9558L178.771 49.0785C178.266 50.236 177.116 50.8814 176.104 51.4491L176.073 51.4664Z" fill="url(#paint0_linear_15518_450248)"/>
<path d="M152.559 53.1564C143.633 53.1564 136.622 52.8706 136.521 52.8706C135.984 52.8538 135.563 52.3999 135.58 51.8619C135.597 51.324 136.051 50.9037 136.589 50.9205C136.723 50.9205 149.785 51.4417 162.932 51.055C186.955 50.3489 189.611 47.3398 189.846 46.432C189.947 46.0621 189.863 44.6164 184.584 41.893C184.097 41.6408 183.912 41.0524 184.164 40.5817C184.416 40.0942 185.005 39.9092 185.475 40.1614C190.317 42.6495 192.301 44.8013 191.729 46.9363C191.124 49.2058 187.493 52.299 162.965 53.0219C159.418 53.106 155.854 53.1564 152.559 53.1564Z" fill="url(#paint1_linear_15518_450248)"/>
<path d="M93.4822 27.6201C92.793 27.6201 92.255 28.1749 92.255 28.881C92.255 29.5702 92.8098 30.0745 93.4822 30.0745C94.1715 30.0745 94.7094 29.5534 94.7094 28.881C94.7094 28.1749 94.1547 27.6201 93.4822 27.6201Z" fill="white"/>
<path d="M1.91647 27.6538H0.537956C0.1513 27.6538 0 27.8219 0 28.1917V65.2939C0 65.6805 0.168111 65.8318 0.537956 65.8318H1.89966C2.28631 65.8318 2.43761 65.6637 2.43761 65.2939V28.2085C2.45442 27.8219 2.28631 27.6538 1.91647 27.6538Z" fill="white"/>
<path d="M44.0046 38.0261C38.6586 38.0261 35.4981 41.9599 33.8002 45.8769C32.926 41.7245 30.2531 38.0261 25.0752 38.0261C19.7797 38.0261 16.7874 41.9599 15.5265 45.1204V39.1188C15.5265 38.7322 15.3584 38.5809 14.9886 38.5809H13.6269C13.2402 38.5809 13.0889 38.749 13.0889 39.1188V65.3105C13.0889 65.63 13.257 65.8485 13.6269 65.8485H14.9886C15.3752 65.8485 15.5265 65.63 15.5265 65.3105V51.4582C15.5265 45.8937 19.6116 40.4301 24.6382 40.4301C29.816 40.4301 32.0014 45.07 32.0014 51.2901V65.3105C32.0014 65.63 32.22 65.8485 32.5394 65.8485H33.9011C34.2877 65.8485 34.439 65.63 34.439 65.3105V51.4582C34.439 45.5575 38.8604 40.4301 43.6011 40.4301C48.7789 40.4301 50.9139 45.07 50.9139 51.2901V65.3105C50.9139 65.63 51.1325 65.8485 51.5191 65.8485H52.8304C53.2171 65.8485 53.3684 65.63 53.3684 65.3105V51.0715C53.3852 43.0526 50.2751 38.0261 44.0046 38.0261Z" fill="white"/>
<path d="M65.6838 63.4615H83.9575C84.3442 63.4615 84.5123 63.6128 84.4955 63.9994V65.3107C84.4955 65.6805 84.3442 65.8487 83.9575 65.8487H63.7674C63.3975 65.8487 63.2294 65.6974 63.2294 65.3107V28.2086C63.2294 27.8387 63.3807 27.6706 63.7674 27.6706H65.1459C65.5157 27.6706 65.6838 27.8219 65.6838 28.2086V63.4615Z" fill="white"/>
<path d="M92.8266 38.581H94.1379C94.5077 38.581 94.7263 38.7323 94.7431 39.119V65.3107C94.7431 65.6805 94.5246 65.8486 94.1379 65.8486H92.8266C92.4568 65.8486 92.2887 65.6301 92.2887 65.3107V39.119C92.2887 38.7491 92.44 38.581 92.8266 38.581Z" fill="white"/>
<path d="M123.5 38.581H121.869C121.446 38.581 121.338 38.7863 121.178 39.0898L121.163 39.119L112.758 62.3687L104.302 39.119C104.184 38.7995 104.083 38.581 103.596 38.581H102.015C101.578 38.581 101.528 38.7995 101.629 39.119L111.076 65.0417C111.295 65.5797 111.564 65.8654 112.001 65.8654H113.581C114.018 65.8654 114.237 65.5965 114.405 65.0417L123.903 39.119C124.004 38.85 123.887 38.581 123.5 38.581Z" fill="white"/>
<path d="M130.772 51.6601C130.772 58.4517 136.286 63.9658 143.078 63.9658C147.987 63.9658 152.223 61.0911 154.207 56.9219H156.443C154.341 62.2342 149.163 65.9999 143.095 65.9999C135.177 65.9999 128.755 59.5781 128.755 51.6601C128.755 43.742 135.177 37.3202 143.095 37.3202C151.013 37.3202 157.434 43.742 157.434 51.6601H155.384C155.384 44.8684 149.869 39.3543 143.078 39.3543C136.286 39.3543 130.772 44.8684 130.772 51.6601Z" fill="white"/>
<defs>
<linearGradient id="paint0_linear_15518_450248" x1="129.803" y1="57.2109" x2="179.778" y2="57.2109" gradientUnits="userSpaceOnUse">
<stop stop-color="#1A8E4D"/>
<stop offset="0.1246" stop-color="#229550"/>
<stop offset="0.6854" stop-color="#40AF5D"/>
<stop offset="1" stop-color="#4CB962"/>
</linearGradient>
<linearGradient id="paint1_linear_15518_450248" x1="135.578" y1="46.5959" x2="191.837" y2="46.5959" gradientUnits="userSpaceOnUse">
<stop offset="0.5531" stop-color="white"/>
<stop offset="0.5974" stop-color="#E8FAEF"/>
<stop offset="0.7401" stop-color="#A4EBBD"/>
<stop offset="0.8595" stop-color="#71DF99"/>
<stop offset="0.9497" stop-color="#53D983"/>
<stop offset="1" stop-color="#47D67B"/>
</linearGradient>
</defs>
</svg>
