<?xml version="1.0" encoding="UTF-8" standalone="no"?><!DOCTYPE svg PUBLIC "-//W3C//DTD SVG 1.1//EN" "http://www.w3.org/Graphics/SVG/1.1/DTD/svg11.dtd"><svg width="100%" height="100%" viewBox="0 0 1979 211" version="1.1" xmlns="http://www.w3.org/2000/svg" xmlns:xlink="http://www.w3.org/1999/xlink" xml:space="preserve" xmlns:serif="http://www.serif.com/" style="fill-rule:evenodd;clip-rule:evenodd;stroke-linejoin:round;stroke-miterlimit:2;"><g><path d="M49.475,166.479l-48.56,0l0,-163.586l73.719,0l58.337,102.173l59.326,-102.173l72.73,0l0,163.586l-48.34,0l0,-116.565l-67.566,116.565l-32.63,0l-67.016,-116.565l0,116.565Z" style="fill:#028100;fill-rule:nonzero;"/><path d="M350.61,160.876l-15.6,0l-50.538,-110.083l45.813,0l32.19,75.147l33.289,-75.147l45.483,0l-57.788,124.695c-3.003,6.445 -6.024,11.682 -9.063,15.71c-3.04,4.029 -6.391,7.105 -10.053,9.229c-3.149,1.831 -6.903,3.149 -11.261,3.955c-4.358,0.806 -9.613,1.209 -15.765,1.209c-3.223,0 -6.409,-0.074 -9.558,-0.22c-3.15,-0.147 -6.263,-0.366 -9.339,-0.659l0,-27.356c1.685,0.146 3.259,0.274 4.724,0.384c1.465,0.11 2.893,0.165 4.285,0.165c6.665,0 11.847,-1.355 15.546,-4.065c3.698,-2.71 6.244,-7.031 7.635,-12.964Z" style="fill:#028100;fill-rule:nonzero;"/><path d="M636.584,42.773l-128.76,0l0,29.224l121.29,0l0,39.551l-121.29,0l0,54.931l-49.877,0l0,-163.586l178.637,0l0,39.88Z" style="fill:#028100;fill-rule:nonzero;"/><path d="M698.437,72.436c4.102,-8.276 9.449,-14.245 16.04,-17.907c6.592,-3.663 15.345,-5.494 26.258,-5.494c16.04,0 27.429,3.406 34.167,10.218c6.738,6.811 10.108,18.237 10.108,34.277c0,2.344 -0.147,5.969 -0.44,10.877l0,0.659l-36.694,0l0,-1.758c0,-6.812 -1.886,-11.829 -5.658,-15.051c-3.772,-3.223 -9.613,-4.834 -17.523,-4.834c-8.204,0 -14.631,1.886 -19.281,5.658c-4.651,3.772 -6.977,9.027 -6.977,15.765l0,61.633l-41.638,0l0,-115.686l41.638,0l0,21.643Z" style="fill:#028100;fill-rule:nonzero;"/><path d="M905.31,128.027l39.221,0l0,1.758c0,13.55 -4.138,23.309 -12.415,29.278c-8.276,5.97 -21.936,8.954 -40.979,8.954l-38.671,0c-17.432,0 -30.744,-3.643 -39.936,-10.931c-9.192,-7.288 -13.788,-17.816 -13.788,-31.586l0,-31.421c0,-14.502 4.596,-25.598 13.788,-33.288c9.192,-7.691 22.431,-11.536 39.716,-11.536l38.891,0c17.432,0 30.726,3.827 39.881,11.481c9.155,7.654 13.733,18.768 13.733,33.343l0,24.72l-104.48,0l-0.22,3.076c0,6.665 1.923,11.444 5.768,14.337c3.845,2.893 10.199,4.34 19.061,4.34l17.468,0c9.009,0 14.869,-0.879 17.579,-2.637c2.709,-1.758 4.504,-5.054 5.383,-9.888Zm-65.039,-34.717l64.16,0l0,-0.439c0,-5.493 -1.74,-9.375 -5.219,-11.646c-3.479,-2.27 -9.539,-3.405 -18.182,-3.405l-17.139,0c-8.642,0 -14.74,1.153 -18.292,3.46c-3.552,2.307 -5.328,6.171 -5.328,11.591l0,0.439Z" style="fill:#028100;fill-rule:nonzero;"/><path d="M1075.38,128.027l39.221,0l0,1.758c0,13.55 -4.138,23.309 -12.414,29.278c-8.277,5.97 -21.936,8.954 -40.979,8.954l-38.672,0c-17.432,0 -30.743,-3.643 -39.935,-10.931c-9.192,-7.288 -13.788,-17.816 -13.788,-31.586l0,-31.421c0,-14.502 4.596,-25.598 13.788,-33.288c9.192,-7.691 22.43,-11.536 39.715,-11.536l38.892,0c17.431,0 30.725,3.827 39.88,11.481c9.155,7.654 13.733,18.768 13.733,33.343l0,24.72l-104.48,0l-0.22,3.076c0,6.665 1.923,11.444 5.768,14.337c3.845,2.893 10.199,4.34 19.061,4.34l17.469,0c9.009,0 14.868,-0.879 17.578,-2.637c2.71,-1.758 4.504,-5.054 5.383,-9.888Zm-65.039,-34.717l64.16,0l0,-0.439c0,-5.493 -1.739,-9.375 -5.218,-11.646c-3.479,-2.27 -9.54,-3.405 -18.183,-3.405l-17.138,0c-8.643,0 -14.74,1.153 -18.293,3.46c-3.552,2.307 -5.328,6.171 -5.328,11.591l0,0.439Z" style="fill:#028100;fill-rule:nonzero;"/><path d="M1299.94,61.889l0,-1.648c0,-6.372 -2.106,-11.041 -6.317,-14.007c-4.212,-2.966 -10.895,-4.45 -20.05,-4.45l-39.991,0c-17.138,0 -28.143,2.07 -33.014,6.208c-4.87,4.138 -7.306,12.799 -7.306,25.982l0,22.742c0,11.792 2.71,19.885 8.13,24.28c5.42,4.394 16.15,6.592 32.19,6.592l29.004,0c15.894,0 26.312,-1.593 31.256,-4.779c4.944,-3.186 7.416,-9.101 7.416,-17.743l0,-1.758l50.647,0c0,0.22 0.037,0.622 0.11,1.208c0.22,4.761 0.33,8.313 0.33,10.657c0,10.474 -1.319,19.116 -3.956,25.928c-2.636,6.811 -6.774,12.268 -12.414,16.369c-5.347,3.956 -12.47,6.775 -21.369,8.46c-8.898,1.685 -21.954,2.527 -39.166,2.527l-55.81,0c-17.066,0 -29.627,-0.916 -37.683,-2.747c-8.057,-1.831 -14.942,-4.944 -20.655,-9.338c-6.592,-5.2 -11.389,-11.591 -14.392,-19.171c-3.003,-7.581 -4.504,-17.157 -4.504,-28.73l0,-44.604c0,-23.438 5.566,-39.789 16.699,-49.054c11.133,-9.265 31.311,-13.898 60.535,-13.898l55.81,0c17.945,0 31.165,0.806 39.661,2.417c8.496,1.612 15.198,4.322 20.105,8.13c5.2,3.955 9.027,9.284 11.481,15.985c2.453,6.702 3.68,15.106 3.68,25.214c0,2.417 -0.018,4.266 -0.055,5.548c-0.037,1.282 -0.128,2.509 -0.275,3.68l-50.097,0Z" style="fill:#028100;fill-rule:nonzero;"/><path d="M1458.91,116.491l-25.379,0c-7.617,0 -12.963,0.916 -16.04,2.747c-3.076,1.831 -4.614,4.907 -4.614,9.229c0,4.101 1.41,6.958 4.23,8.569c2.82,1.611 8.295,2.417 16.424,2.417l25.379,0c7.617,0 12.982,-0.897 16.095,-2.692c3.113,-1.794 4.669,-4.852 4.669,-9.173c0,-4.175 -1.41,-7.068 -4.23,-8.68c-2.82,-1.611 -8.331,-2.417 -16.534,-2.417Zm62.842,49.988l-41.638,0l0,-13.952c-4.249,5.346 -10.749,9.265 -19.501,11.755c-8.753,2.49 -20.27,3.735 -34.552,3.735c-21.167,0 -35.706,-2.801 -43.616,-8.404c-7.91,-5.603 -11.865,-15.692 -11.865,-30.268c0,-14.355 4.083,-24.279 12.25,-29.772c8.166,-5.494 23.565,-8.24 46.197,-8.24c12.891,0 23.419,0.805 31.586,2.417c8.166,1.611 14.667,4.101 19.501,7.47l0,-12.414c0,-4.028 -1.392,-7.123 -4.175,-9.284c-2.783,-2.16 -6.775,-3.24 -11.975,-3.24l-34.058,0c-4.175,0 -7.233,0.695 -9.174,2.087c-1.941,1.392 -2.911,3.625 -2.911,6.702l-41.858,0l0,-1.429c0,-12.158 4.523,-20.929 13.568,-26.312c9.046,-5.383 24.079,-8.075 45.099,-8.075l40.759,0c15.747,0 27.411,3.131 34.992,9.393c7.58,6.263 11.371,15.876 11.371,28.84l0,78.991Z" style="fill:#028100;fill-rule:nonzero;"/><path d="M1590.97,166.479l-41.639,0l0,-115.027l41.639,0l0,17.798c4.321,-7.104 9.851,-12.14 16.589,-15.106c6.738,-2.966 16.37,-4.449 28.894,-4.449c14.868,0 26.367,2.124 34.497,6.372c8.13,4.248 13.513,10.913 16.15,19.995c3.955,-9.229 9.686,-15.93 17.194,-20.105c7.507,-4.175 17.669,-6.262 30.487,-6.262c19.336,0 33.691,3.46 43.066,10.382c9.375,6.921 14.063,17.486 14.063,31.695l0,74.707l-41.639,0l0,-58.227c0,-10.254 -2.032,-16.992 -6.097,-20.215c-4.065,-3.223 -11.701,-4.834 -22.907,-4.834c-10.327,0 -17.743,2.051 -22.247,6.152c-4.504,4.102 -6.756,10.84 -6.756,20.215l0,56.909l-41.639,0l0,-58.227c0,-10.254 -2.069,-16.992 -6.207,-20.215c-4.138,-3.223 -11.957,-4.834 -23.456,-4.834c-10.547,0 -18.182,2.069 -22.906,6.207c-4.724,4.138 -7.086,10.858 -7.086,20.16l0,56.909Z" style="fill:#028100;fill-rule:nonzero;"/><path d="M1817.07,129.895l44.165,-0.11l0,0.439c0,3.589 1.795,6.208 5.384,7.856c3.588,1.648 9.338,2.472 17.248,2.472l30.432,0c6.079,0 10.364,-0.678 12.854,-2.033c2.49,-1.355 3.736,-3.644 3.736,-6.866c0,-2.93 -1.337,-5.146 -4.01,-6.647c-2.674,-1.502 -7.013,-2.435 -13.019,-2.802l-41.199,-0.769c-20.801,-0.073 -35.193,-2.746 -43.176,-8.02c-7.984,-5.273 -11.975,-14.209 -11.975,-26.806c0,-13.33 4.321,-22.889 12.964,-28.675c8.642,-5.786 23.144,-8.679 43.505,-8.679l47.242,0c15.087,0 26.257,2.783 33.508,8.35c7.251,5.566 10.95,14.172 11.096,25.818l-41.638,0c-1.025,-2.198 -3.259,-3.864 -6.702,-4.999c-3.442,-1.135 -8.093,-1.703 -13.952,-1.703l-29.114,0c-5.567,0 -9.467,0.568 -11.701,1.703c-2.233,1.135 -3.35,3.021 -3.35,5.658c0,2.71 1.171,4.651 3.515,5.823c2.344,1.171 7.691,2.014 16.04,2.526l50.867,0c14.868,0.22 25.745,3.278 32.629,9.174c6.885,5.896 10.327,15.07 10.327,27.521c0,14.209 -3.826,24.243 -11.48,30.102c-7.654,5.86 -21.149,8.789 -40.485,8.789l-42.297,0c-23.877,0 -40.027,-2.783 -48.45,-8.349c-8.423,-5.567 -12.744,-15.491 -12.964,-29.773Z" style="fill:#028100;fill-rule:nonzero;"/></g></svg>