<?xml version="1.0" encoding="UTF-8" standalone="no"?>
<svg
   viewBox="0 0 1375.1801 328.55264"
   version="1.1"
   id="svg2"
   sodipodi:docname="OnlyFans_logo.svg"
   width="1375.1801"
   height="328.55264"
   inkscape:version="1.3.2 (091e20ef0f, 2023-11-25)"
   xmlns:inkscape="http://www.inkscape.org/namespaces/inkscape"
   xmlns:sodipodi="http://sodipodi.sourceforge.net/DTD/sodipodi-0.dtd"
   xmlns="http://www.w3.org/2000/svg"
   xmlns:svg="http://www.w3.org/2000/svg">
  <sodipodi:namedview
     id="namedview2"
     pagecolor="#ffffff"
     bordercolor="#000000"
     borderopacity="0.25"
     inkscape:showpageshadow="2"
     inkscape:pageopacity="0.0"
     inkscape:pagecheckerboard="0"
     inkscape:deskcolor="#d1d1d1"
     inkscape:zoom="0.16857143"
     inkscape:cx="688.13559"
     inkscape:cy="142.37288"
     inkscape:window-width="1280"
     inkscape:window-height="729"
     inkscape:window-x="0"
     inkscape:window-y="0"
     inkscape:window-maximized="1"
     inkscape:current-layer="svg2" />
  <defs
     id="defs1">
    <style
       id="style1">.a{fill:none;}.b{fill:#00aeef;}.c{fill:#008ccf;}</style>
  </defs>
  <path
     class="b"
     d="M 104.68,16.41 C 34.83,16.41 0,67.95 0,138.24 c 0,71.1 34.3,122.17 104.68,122.17 69.88,0 105,-51 105,-122.12 C 209.7,66.75 176,16.41 104.68,16.41 Z m 0,203.66 c -40,0 -47,-41.82 -47,-81.86 0,-40.34 6.61,-81.53 47,-81.53 40.39,0 47.32,40.92 47.32,81.56 0,40.89 -6.53,81.86 -47.32,81.86 z M 343.4,70.8 c -22.72,0 -39.74,9.65 -54.35,26.84 l -1.27,-7.23 A 16.77,16.77 0 0 0 271.26,76.52 h -32.2 v 169.75 a 8.38,8.38 0 0 0 8.39,8.39 h 44.62 V 138.03 a 16.29,16.29 0 0 1 2.89,-9.45 q 13.44,-18.87 28,-18.86 c 13.88,0 16.77,10.05 16.77,23.82 v 112.73 a 8.39,8.39 0 0 0 8.39,8.39 h 44.62 V 124.49 C 392.72,89.26 373.26,70.8 343.4,70.8 Z m 149.15,147.33 a 18.46,18.46 0 0 1 -2.86,0.29 q -9.07,0 -9.06,-11.06 V 0 L 435.1,4.91 a 8.39,8.39 0 0 0 -7.49,8.34 v 196.16 c 0,33.69 19,51 49,51 a 82.61,82.61 0 0 0 32.21,-6 l -8.68,-31.37 a 6.7,6.7 0 0 0 -7.59,-4.91 z M 631,76.5 a 8.38,8.38 0 0 0 -8.15,6.42 L 589.46,220.77 559,83.08 A 8.39,8.39 0 0 0 550.81,76.5 H 501.22 L 552,242.78 a 16.78,16.78 0 0 0 16,11.88 h 5.69 c -10.86,26.15 -27.23,33.27 -57.37,37.25 l 4.53,29.5 a 8.35,8.35 0 0 0 9,7.11 c 47,-4.71 78.1,-27.16 92.53,-73.54 l 56.7,-178.5 z"
     id="path1"
     style="fill:#00aeef" />
  <path
     class="c"
     d="m 701.43,30.54 v 224.12 h 46.63 a 8.39,8.39 0 0 0 8.39,-8.39 v -83.86 h 50.95 a 12.57,12.57 0 0 0 12.51,-11.23 l 3,-28 H 756.46 V 61.41 h 66.95 A 12.57,12.57 0 0 0 835.86,50.64 L 840,22.15 H 709.82 a 8.39,8.39 0 0 0 -8.39,8.39 z m 308.1,164.4 V 76.5 h -32.22 a 16.78,16.78 0 0 0 -16.45,13.48 l -0.32,1.62 C 949.35,77.74 938.88,70.8 920.76,70.8 c -48.88,0 -74.15,43.76 -74.15,94.28 0,50.34 18.56,95.28 68.78,95.28 21.67,0 36.16,-11.18 47.84,-27.17 4.92,9.29 12.38,15.48 21.22,19.78 a 23.53,23.53 0 0 0 32,-12.4 l 7.45,-18.45 c -11.9,-6.01 -14.37,-13.5 -14.37,-27.18 z m -56.15,11.78 c -6.81,9.82 -12.72,14.73 -23.22,14.73 -25.51,0 -28.53,-30.43 -28.53,-56 0,-25.57 5.31,-56 30.87,-56 7.88,0 12.46,2.33 19.47,9.72 a 16.69,16.69 0 0 1 4.54,11.46 v 66.4 a 17.22,17.22 0 0 1 -3.13,9.69 z M 1123.79,77.51 q -13.24,6.72 -24.66,20.13 l -1.26,-7.25 A 16.78,16.78 0 0 0 1081.34,76.5 h -32.2 v 169.77 a 8.39,8.39 0 0 0 8.39,8.39 h 44.62 V 138.03 a 16.29,16.29 0 0 1 2.89,-9.45 q 13.44,-18.87 28,-18.86 c 13.88,0 16.78,10.05 16.78,23.82 v 112.73 a 8.39,8.39 0 0 0 8.39,8.39 h 44.62 V 124.48 c -0.02,-53.88 -47.15,-63.07 -79.04,-46.97 z m 172.52,59.38 c -7.44,-3.23 -12.34,-6.14 -12.72,-13.77 -0.35,-6.92 5.18,-12.9 12.06,-13.8 q 23.67,-3.09 46.95,9.42 a 8.26,8.26 0 0 0 10.73,-2.94 l 15.12,-23.19 c -18.38,-15 -41.91,-21.81 -65.43,-21.81 -37.35,0 -72.81,18.54 -72.81,54.35 0,49 54.75,54.33 77.17,63.58 8.73,3.61 12.84,7.2 13.08,16.12 a 16.61,16.61 0 0 1 -13.82,16.6 q -28.29,4.65 -53.67,-12.36 a 8.24,8.24 0 0 0 -10.67,1.53 l -20.8,23.23 c 19.79,18.34 47.71,26.56 74.5,26.56 40.25,0 79.18,-18.9 79.18,-58.71 -0.02,-49.39 -47.29,-51.07 -78.87,-64.81 z"
     id="path2"
     style="fill:#008ccf" />
</svg>
